<?xml version="1.0" encoding="UTF-8" standalone="no"?>
<!-- Created with Inkscape (http://www.inkscape.org/) -->

<svg
   version="1.1"
   id="svg1237"
   xml:space="preserve"
   width="8"
   height="8"
   viewBox="0 0 7.9999998 7.9999996"
   sodipodi:docname="nucleic.svg"
   inkscape:version="1.2.2 (b0a8486541, 2022-12-01)"
   xmlns:inkscape="http://www.inkscape.org/namespaces/inkscape"
   xmlns:sodipodi="http://sodipodi.sourceforge.net/DTD/sodipodi-0.dtd"
   xmlns="http://www.w3.org/2000/svg"
   xmlns:svg="http://www.w3.org/2000/svg"><sodipodi:namedview
     id="namedview828"
     pagecolor="#ffffff"
     bordercolor="#666666"
     borderopacity="1.0"
     inkscape:pageshadow="2"
     inkscape:pageopacity="0.0"
     inkscape:pagecheckerboard="0"
     showgrid="false"
     showguides="true"
     inkscape:guide-bbox="true"
     inkscape:zoom="96.804677"
     inkscape:cx="3.6568481"
     inkscape:cy="4.1423618"
     inkscape:window-width="1920"
     inkscape:window-height="1017"
     inkscape:window-x="0"
     inkscape:window-y="0"
     inkscape:window-maximized="1"
     inkscape:current-layer="svg1237"
     inkscape:showpageshadow="2"
     inkscape:deskcolor="#d1d1d1"><sodipodi:guide
       position="117.06378,-13.723175"
       orientation="0,-1"
       id="guide1114"
       inkscape:locked="false" /><sodipodi:guide
       position="122.16543,-177.96354"
       orientation="-0.85305448,-0.52182187"
       id="guide1597"
       inkscape:locked="false" /><sodipodi:guide
       position="107.13634,-70.509764"
       orientation="0,-1"
       id="guide1742"
       inkscape:locked="false" /><sodipodi:guide
       position="99.824536,-182.61114"
       orientation="1,0"
       id="guide1862"
       inkscape:locked="false" /><sodipodi:guide
       position="159.85185,23.140395"
       orientation="1,0"
       id="guide1864"
       inkscape:locked="false" /><sodipodi:guide
       position="139.44523,-244.39477"
       orientation="0,-1"
       id="guide2017"
       inkscape:locked="false" /><sodipodi:guide
       position="70.131245,-8.3691227"
       orientation="1,0"
       id="guide1199"
       inkscape:locked="false" /><sodipodi:guide
       position="92.78426,-178.98433"
       orientation="1,0"
       id="guide1437"
       inkscape:locked="false" /><sodipodi:guide
       position="87.838611,-187.61498"
       orientation="0,-1"
       id="guide1439"
       inkscape:locked="false" /><sodipodi:guide
       position="127.36502,-242.36622"
       orientation="1,0"
       id="guide1598"
       inkscape:locked="false" /><sodipodi:guide
       position="3.9977406,6.8223706"
       orientation="1,0"
       id="guide5463"
       inkscape:locked="false" /></sodipodi:namedview><defs
     id="defs1241" /><path
     d="M 1.6401529,-1.364604e-6 0.71277552,0.0051887 c 0,2.3149501 0.99236298,3.251354 2.13713708,3.9219685 L 3.8309804,3.3813968 C 3.4795181,3.1864041 3.1413966,2.982347 2.8403,2.7407165 l 1.1060216,0.00202 -0.3604899,-0.590607 -1.3294501,-0.00202 C 2.0503872,1.8789105 1.886352,1.5641443 1.7791152,1.1864394 L 2.9957254,1.1861275 2.6352355,0.59548394 1.665884,0.59579858 C 1.6452334,0.41001349 1.6363518,0.21209671 1.6401529,-1.364604e-6 Z m 4.7354195,0 C 6.3790812,0.21209671 6.3701631,0.40961143 6.3497683,0.59579576 L 3.5991141,0.59548112 3.9596042,1.1861247 6.2365008,1.1864366 C 6.1287521,1.5641413 5.9647168,1.8786153 5.759015,2.1501067 l -1.2076822,0.00202 0.3604169,0.590607 0.2633835,-0.00202 C 4.8234517,3.0226611 4.4218432,3.2534361 4.0075521,3.4781806 3.9986341,3.4733193 3.9898254,3.4685314 3.0172738,4.0229174 1.8191371,4.7312511 0.77110882,5.6874289 0.81639402,8.004572 H 1.7644953 C 1.7639851,7.8292427 1.7712571,7.663965 1.7858769,7.5072032 L 4.5646344,7.5093646 4.2041446,6.918721 1.8806869,6.916561 C 1.9704164,6.5398064 2.1086475,6.2241996 2.2839401,5.9529275 l 1.3327565,-2.74e-5 -0.3604899,-0.5906438 -0.470512,2.75e-5 C 3.1429683,5.0335191 3.565812,4.7826418 4.0076617,4.5467132 4.0173817,4.5518722 4.9992926,4.0236136 4.99794,4.0229191 6.2116469,3.344008 7.3029488,2.4324577 7.3029488,0.00519026 Z M 5.1449796,4.1116968 4.18745,4.644409 c 0.3760235,0.2081874 0.733626,0.4340648 1.0422883,0.7178732 l -1.005722,8.965e-4 0.3604901,0.5906438 1.1470598,-8.965e-4 c 0.174927,0.2712721 0.3132314,0.5869884 0.4032897,0.9636335 l -0.9593004,0.00216 0.3603801,0.5906437 0.6937302,-0.00216 c 0.014181,0.1567618 0.021674,0.3220395 0.021565,0.4973688 h 0.9481 C 7.2422396,5.7829697 6.2802508,4.8123916 5.1449796,4.1116968 Z"
     style="fill:#000000;fill-opacity:1;fill-rule:evenodd;stroke:none;stroke-width:0.00365497"
     id="path1245"
     sodipodi:nodetypes="ccccccccccccccccccccccccccccccccccccccccccccccccccc" /></svg>
