<?xml version="1.0" encoding="UTF-8" standalone="no"?>
<!-- Created with Inkscape (http://www.inkscape.org/) -->

<svg
   version="1.1"
   id="svg1237"
   xml:space="preserve"
   width="240.40933"
   height="292.00665"
   viewBox="0 0 240.40933 292.00664"
   sodipodi:docname="nucleic-1.svg"
   inkscape:version="1.1.1 (3bf5ae0d25, 2021-09-20, custom)"
   xmlns:inkscape="http://www.inkscape.org/namespaces/inkscape"
   xmlns:sodipodi="http://sodipodi.sourceforge.net/DTD/sodipodi-0.dtd"
   xmlns="http://www.w3.org/2000/svg"
   xmlns:svg="http://www.w3.org/2000/svg"><sodipodi:namedview
     id="namedview828"
     pagecolor="#ffffff"
     bordercolor="#666666"
     borderopacity="1.0"
     inkscape:pageshadow="2"
     inkscape:pageopacity="0.0"
     inkscape:pagecheckerboard="0"
     showgrid="false"
     showguides="true"
     inkscape:guide-bbox="true"
     inkscape:zoom="3.2225293"
     inkscape:cx="162.29488"
     inkscape:cy="233.04676"
     inkscape:window-width="3840"
     inkscape:window-height="2097"
     inkscape:window-x="0"
     inkscape:window-y="0"
     inkscape:window-maximized="1"
     inkscape:current-layer="svg1237"><sodipodi:guide
       position="117.06378,270.28347"
       orientation="0,-1"
       id="guide1114" /><sodipodi:guide
       position="122.16543,106.0431"
       orientation="-0.85305448,-0.52182187"
       id="guide1597" /><sodipodi:guide
       position="107.13634,213.49688"
       orientation="0,-1"
       id="guide1742" /><sodipodi:guide
       position="99.824537,101.3955"
       orientation="1,0"
       id="guide1862" /><sodipodi:guide
       position="159.85185,307.14704"
       orientation="1,0"
       id="guide1864" /><sodipodi:guide
       position="139.44523,39.611872"
       orientation="0,-1"
       id="guide2017" /><sodipodi:guide
       position="70.131246,275.63752"
       orientation="1,0"
       id="guide1199" /><sodipodi:guide
       position="92.784261,105.02231"
       orientation="1,0"
       id="guide1437" /><sodipodi:guide
       position="87.838612,96.391668"
       orientation="0,-1"
       id="guide1439" /><sodipodi:guide
       position="127.36502,41.640423"
       orientation="1,0"
       id="guide1598" /></sodipodi:namedview><defs
     id="defs1241" /><path
     d="M 33.830666,-1.364604e-6 -1.9351006e-8,0.18933196 C -1.9351006e-8,84.638663 36.201332,118.79866 77.962665,143.26266 L 113.752,123.35333 C 100.93066,116.24 88.595998,108.796 77.611998,99.981329 L 117.95964,100.0551 104.80898,78.509767 56.310665,78.435997 C 48.795999,68.542664 42.811999,57.059997 38.899999,43.281331 L 83.281915,43.269842 70.131248,21.723176 34.769332,21.734665 C 34.015999,14.957332 33.691999,7.7373318 33.830666,-1.364604e-6 Z m 172.747994,0 C 206.70666,7.7373318 206.38133,14.942665 205.63733,21.734665 l -100.34381,-0.01149 13.15067,21.546666 83.06114,0.01149 c -3.93067,13.778666 -9.91467,25.250666 -17.41867,35.154666 l -44.05622,0.07377 13.148,21.545333 9.60822,-0.07377 c -12.82933,10.28533 -27.48,18.704 -42.59333,26.90267 -0.32533,-0.17734 -0.64667,-0.352 -36.125332,19.87199 -43.707999,25.84 -81.9399981,60.72134 -80.2879981,145.25067 H 38.366666 c -0.01867,-6.396 0.246666,-12.42534 0.78,-18.144 l 101.369014,0.0788 -13.15066,-21.54667 -84.759688,-0.0788 c 3.273334,-13.744 8.316,-25.25733 14.710667,-35.15333 l 48.618931,-10e-4 -13.150667,-21.54667 -17.164265,0.001 c 13.033333,-11.99333 28.458662,-21.14533 44.577332,-29.752 0.35467,0.188 36.17467,-19.08266 36.12533,-19.108 44.276,-24.76666 84.08667,-58.019994 84.08667,-146.56665804 z M 161.68666,149.99466 126.756,169.42799 c 13.71733,7.59467 26.76266,15.83467 38.02266,26.188 l -36.68872,0.0327 13.15067,21.54667 41.84472,-0.0327 c 6.38133,9.896 11.42667,21.41333 14.712,35.15333 l -34.99526,0.0788 13.14666,21.54667 25.30726,-0.0788 c 0.51734,5.71866 0.79067,11.748 0.78667,18.144 h 34.58667 c 1.56533,-81.044 -33.528,-116.45067 -74.94267,-142.012 z"
     style="fill:#000000;fill-opacity:1;fill-rule:evenodd;stroke:none;stroke-width:0.133333"
     id="path1245"
     sodipodi:nodetypes="ccccccccccccccccccccccccccccccccccccccccccccccccccc" /></svg>
