<?xml version="1.0" encoding="UTF-8" standalone="no"?>
<!-- Created with Inkscape (http://www.inkscape.org/) -->

<svg
   width="8"
   height="8"
   viewBox="0 0 2.1166666 2.1166667"
   version="1.1"
   id="svg5"
   xml:space="preserve"
   xmlns="http://www.w3.org/2000/svg"
   xmlns:svg="http://www.w3.org/2000/svg"><defs
     id="defs2" /><g
     id="layer1"><path
       id="path1302"
       style="fill:#000000;stroke:#000000;stroke-width:0.00508734px;stroke-linecap:butt;stroke-linejoin:miter;stroke-opacity:1"
       d="M 1.0620658,0.22705196 C 0.75529125,0.22505695 0.41785602,0.3186944 0.20547948,0.58559826 -0.23482885,1.1141252 0.12381298,1.7121604 0.55940542,1.815963 1.1996628,1.9764492 1.8254084,1.8311184 2.0648527,1.3556605 2.1262264,1.2419542 2.131561,1.0625652 2.0541116,0.99026813 1.9757996,0.91716611 1.8385109,0.97249348 1.7163619,0.83067367 1.5597468,0.59495078 1.948474,0.49862312 1.6241841,0.35402614 1.4934735,0.28089507 1.2859286,0.22850777 1.0620658,0.22705196 Z m 0.2948654,0.23901447 c 0.088379,6.0965e-4 0.1682928,0.0435619 0.1941227,0.10303784 0.036735,0.0845878 -0.01129,0.19717764 -0.135579,0.2537298 -0.1242886,0.0565518 -0.2502412,0.0264719 -0.2869759,-0.058117 -0.036735,-0.0845878 -0.0089,-0.21828193 0.1153886,-0.27483408 0.036898,-0.0167884 0.075727,-0.0240735 0.1130436,-0.0238166 z M 0.40476902,0.63969082 A 0.12856827,0.12856827 0 0 1 0.53333295,0.76826457 0.12856827,0.12856827 0 0 1 0.40476902,0.8968285 0.12856827,0.12856827 0 0 1 0.27619513,0.76826457 0.12856827,0.12856827 0 0 1 0.40476902,0.63969082 Z M 0.36429922,0.99717391 A 0.12856827,0.12856827 0 0 1 0.49286325,1.1257478 0.12856827,0.12856827 0 0 1 0.36429927,1.2543117 0.12856827,0.12856827 0 0 1 0.23572535,1.1257478 0.12856827,0.12856827 0 0 1 0.36429922,0.99717391 Z M 0.55091029,1.3344269 A 0.12856827,0.12856827 0 0 1 0.67947402,1.4630009 0.12856827,0.12856827 0 0 1 0.55091008,1.5915647 0.12856827,0.12856827 0 0 1 0.42234605,1.4630009 0.12856827,0.12856827 0 0 1 0.55091029,1.3344269 Z M 0.91064887,1.4648293 A 0.12856827,0.12856827 0 0 1 1.0392126,1.593403 0.12856827,0.12856827 0 0 1 0.91064867,1.721967 0.12856827,0.12856827 0 0 1 0.78207482,1.593403 0.12856827,0.12856827 0 0 1 0.91064887,1.4648293 Z" /></g></svg>
